<svg width="109" height="20" viewBox="0 0 109 20" fill="none" xmlns="http://www.w3.org/2000/svg">
<g clip-path="url(#clip0)">
<g clip-path="url(#clip1)">
<path d="M14.8686 5.78296L13.4513 5.02661L12.3572 5.66546L13.8112 6.4879C14.0388 6.61273 14.0388 6.94317 13.8112 7.06801L9.17029 9.71888C8.90593 9.86574 8.74438 10.1448 8.74438 10.4532V16.9959C8.74438 17.297 9.06748 17.4806 9.32449 17.3337L14.9273 14.0954C15.221 13.9265 15.4046 13.6107 15.4046 13.273V6.67148C15.4046 6.30432 15.199 5.95919 14.8686 5.78296Z" fill="#5384EE"/>
<path d="M14.1143 3.27949L8.26918 1.74477C7.96812 1.664 7.64502 1.70806 7.37332 1.86961L1.8219 5.07122C1.57958 5.21074 1.37397 5.38697 1.20508 5.59992L5.7358 6.78951L7.63033 7.2815C7.9314 7.36228 8.24715 7.31822 8.51885 7.16401L14.2024 3.93303C14.4815 3.77882 14.4227 3.36027 14.1143 3.27949Z" fill="#5384EE"/>
<path d="M6.94514 9.56687L5.24887 8.60492L0.754866 6.07153C0.696121 6.2698 0.666748 6.46806 0.666748 6.68101V10.4701V13.0696C0.666748 13.422 0.85767 13.7525 1.16608 13.9287L6.77624 17.167C7.03325 17.3139 7.35635 17.1303 7.35635 16.8292V10.2645C7.35635 9.98543 7.20215 9.71373 6.94514 9.56687Z" fill="#5384EE"/>
<path d="M24.1067 15H21.944V3.54545H24.1067V15ZM25.5534 10.891C25.5534 10.0906 25.7075 9.37713 26.0158 8.75071C26.324 8.12429 26.7665 7.63956 27.3432 7.29652C27.9248 6.95348 28.5985 6.78196 29.3641 6.78196C30.4529 6.78196 31.3403 7.11506 32.0264 7.78125C32.7175 8.44744 33.1028 9.35227 33.1823 10.4957L33.1972 11.0476C33.1972 12.2855 32.8517 13.2798 32.1606 14.0305C31.4696 14.7763 30.5424 15.1491 29.379 15.1491C28.2157 15.1491 27.286 14.7763 26.59 14.0305C25.8989 13.2848 25.5534 12.2706 25.5534 10.9879V10.891ZM27.7086 11.0476C27.7086 11.8132 27.8528 12.3999 28.1411 12.8075C28.4295 13.2102 28.8421 13.4116 29.379 13.4116C29.9011 13.4116 30.3087 13.2127 30.6021 12.815C30.8954 12.4123 31.042 11.771 31.042 10.891C31.042 10.1403 30.8954 9.55859 30.6021 9.14595C30.3087 8.73331 29.8961 8.52699 29.3641 8.52699C28.8371 8.52699 28.4295 8.73331 28.1411 9.14595C27.8528 9.55362 27.7086 10.1875 27.7086 11.0476ZM41.7956 11.0401C41.7956 12.3327 41.5197 13.342 40.9678 14.0678C40.416 14.7887 39.6454 15.1491 38.656 15.1491C37.781 15.1491 37.0825 14.8136 36.5605 14.1424L36.4636 15H34.5246V3.54545H36.6798V7.65447C37.177 7.0728 37.8307 6.78196 38.6411 6.78196C39.6255 6.78196 40.3961 7.14489 40.9529 7.87074C41.5147 8.59162 41.7956 9.60831 41.7956 10.9208V11.0401ZM39.6404 10.8835C39.6404 10.0682 39.5111 9.47408 39.2526 9.10121C38.9941 8.72337 38.6088 8.53445 38.0967 8.53445C37.4106 8.53445 36.9383 8.81534 36.6798 9.37713V12.5614C36.9433 13.1282 37.4206 13.4116 38.1116 13.4116C38.8077 13.4116 39.265 13.0685 39.4838 12.3825C39.5882 12.0543 39.6404 11.5547 39.6404 10.8835ZM42.7949 10.891C42.7949 10.0906 42.949 9.37713 43.2572 8.75071C43.5655 8.12429 44.0079 7.63956 44.5847 7.29652C45.1663 6.95348 45.84 6.78196 46.6056 6.78196C47.6944 6.78196 48.5818 7.11506 49.2679 7.78125C49.9589 8.44744 50.3442 9.35227 50.4238 10.4957L50.4387 11.0476C50.4387 12.2855 50.0932 13.2798 49.4021 14.0305C48.7111 14.7763 47.7839 15.1491 46.6205 15.1491C45.4572 15.1491 44.5275 14.7763 43.8315 14.0305C43.1404 13.2848 42.7949 12.2706 42.7949 10.9879V10.891ZM44.9501 11.0476C44.9501 11.8132 45.0942 12.3999 45.3826 12.8075C45.6709 13.2102 46.0836 13.4116 46.6205 13.4116C47.1425 13.4116 47.5502 13.2127 47.8435 12.815C48.1369 12.4123 48.2835 11.771 48.2835 10.891C48.2835 10.1403 48.1369 9.55859 47.8435 9.14595C47.5502 8.73331 47.1376 8.52699 46.6056 8.52699C46.0786 8.52699 45.6709 8.73331 45.3826 9.14595C45.0942 9.55362 44.9501 10.1875 44.9501 11.0476ZM54.6745 9.33984L56.0317 6.93111H58.3361L56.0392 10.8835L58.433 15H56.1212L54.682 12.4645L53.2501 15H50.9309L53.3247 10.8835L51.0353 6.93111H53.3471L54.6745 9.33984Z" fill="#5384EE"/>
</g>
<path d="M67.3726 10.9189C67.3726 11.6162 67.1743 12.1494 66.7778 12.5186C66.3859 12.8831 65.8299 13.0654 65.1099 13.0654C64.3944 13.0654 63.8201 12.8262 63.3872 12.3477C62.9588 11.8646 62.7446 11.2083 62.7446 10.3789V9.62695C62.7446 8.82487 62.9611 8.18457 63.394 7.70605C63.8315 7.22298 64.4035 6.98145 65.1099 6.98145C65.839 6.98145 66.3996 7.16829 66.7915 7.54199C67.1834 7.91569 67.3794 8.44206 67.3794 9.12109H66.3813C66.3813 8.66992 66.272 8.34863 66.0532 8.15723C65.839 7.96126 65.5246 7.86328 65.1099 7.86328C64.6815 7.86328 64.3442 8.02051 64.0981 8.33496C63.8521 8.64941 63.729 9.08691 63.729 9.64746V10.4199C63.729 10.9668 63.8521 11.3975 64.0981 11.7119C64.3442 12.0264 64.6815 12.1836 65.1099 12.1836C65.5291 12.1836 65.8436 12.0879 66.0532 11.8965C66.2674 11.7051 66.3745 11.3792 66.3745 10.9189H67.3726ZM61.1313 10.0166C61.1313 10.8005 61.3136 11.5273 61.6782 12.1973C62.0428 12.8626 62.5373 13.3844 63.1616 13.7627C63.7905 14.141 64.4696 14.3301 65.1987 14.3301C65.9279 14.3301 66.6047 14.141 67.229 13.7627C67.8534 13.3844 68.3478 12.8626 68.7124 12.1973C69.077 11.5273 69.2593 10.8005 69.2593 10.0166C69.2593 9.24186 69.0793 8.52409 68.7192 7.86328C68.3592 7.20247 67.8647 6.68294 67.2358 6.30469C66.6115 5.92188 65.9325 5.73047 65.1987 5.73047C64.4696 5.73047 63.7905 5.9196 63.1616 6.29785C62.5327 6.67155 62.036 7.19108 61.6714 7.85645C61.3114 8.52181 61.1313 9.24186 61.1313 10.0166ZM60.3452 10.0166C60.3452 9.09603 60.5571 8.24154 60.981 7.45312C61.4093 6.66471 61.9995 6.04492 62.7515 5.59375C63.508 5.13802 64.3237 4.91016 65.1987 4.91016C66.0737 4.91016 66.8872 5.13802 67.6392 5.59375C68.3911 6.04492 68.979 6.66471 69.4028 7.45312C69.8312 8.24154 70.0454 9.09603 70.0454 10.0166C70.0454 10.9144 69.8403 11.7552 69.4302 12.5391C69.02 13.3229 68.4367 13.9541 67.6802 14.4326C66.9282 14.9066 66.1011 15.1436 65.1987 15.1436C64.3009 15.1436 63.4738 14.9089 62.7173 14.4395C61.9653 13.9655 61.382 13.3366 60.9673 12.5527C60.5526 11.7689 60.3452 10.9235 60.3452 10.0166ZM82.2503 15H75.7288V14.0908L79.1741 10.2627C79.6845 9.68392 80.0354 9.21452 80.2269 8.85449C80.4228 8.48991 80.5208 8.11393 80.5208 7.72656C80.5208 7.20703 80.3636 6.78092 80.0491 6.44824C79.7347 6.11556 79.3154 5.94922 78.7913 5.94922C78.1624 5.94922 77.6725 6.12923 77.3216 6.48926C76.9752 6.84473 76.8021 7.34147 76.8021 7.97949H75.5374C75.5374 7.06348 75.8313 6.32292 76.4192 5.75781C77.0117 5.19271 77.8024 4.91016 78.7913 4.91016C79.7164 4.91016 80.4479 5.15397 80.9856 5.6416C81.5234 6.12467 81.7923 6.76953 81.7923 7.57617C81.7923 8.55599 81.1679 9.72266 79.9192 11.0762L77.2532 13.9678H82.2503V15ZM90.3181 10.7549C90.3181 12.236 90.0651 13.3366 89.5593 14.0566C89.0534 14.7767 88.2627 15.1367 87.1872 15.1367C86.1254 15.1367 85.3392 14.7858 84.8288 14.084C84.3184 13.3776 84.0541 12.3249 84.0358 10.9258V9.2373C84.0358 7.77441 84.2888 6.6875 84.7946 5.97656C85.3005 5.26562 86.0935 4.91016 87.1735 4.91016C88.2445 4.91016 89.0329 5.25423 89.5388 5.94238C90.0446 6.62598 90.3044 7.68327 90.3181 9.11426V10.7549ZM89.0534 9.02539C89.0534 7.95443 88.903 7.17513 88.6022 6.6875C88.3015 6.19531 87.8252 5.94922 87.1735 5.94922C86.5264 5.94922 86.0547 6.19303 85.7585 6.68066C85.4623 7.16829 85.3096 7.91797 85.3005 8.92969V10.9531C85.3005 12.0286 85.4554 12.8239 85.7653 13.3389C86.0798 13.8493 86.5537 14.1045 87.1872 14.1045C87.8116 14.1045 88.2741 13.863 88.5749 13.3799C88.8802 12.8968 89.0397 12.1357 89.0534 11.0967V9.02539ZM98.9464 15H92.4249V14.0908L95.8702 10.2627C96.3806 9.68392 96.7315 9.21452 96.923 8.85449C97.1189 8.48991 97.2169 8.11393 97.2169 7.72656C97.2169 7.20703 97.0597 6.78092 96.7452 6.44824C96.4308 6.11556 96.0115 5.94922 95.4874 5.94922C94.8585 5.94922 94.3686 6.12923 94.0177 6.48926C93.6713 6.84473 93.4981 7.34147 93.4981 7.97949H92.2335C92.2335 7.06348 92.5274 6.32292 93.1153 5.75781C93.7078 5.19271 94.4985 4.91016 95.4874 4.91016C96.4125 4.91016 97.144 5.15397 97.6817 5.6416C98.2195 6.12467 98.4884 6.76953 98.4884 7.57617C98.4884 8.55599 97.864 9.72266 96.6153 11.0762L93.9493 13.9678H98.9464V15ZM107.014 10.7549C107.014 12.236 106.761 13.3366 106.255 14.0566C105.75 14.7767 104.959 15.1367 103.883 15.1367C102.821 15.1367 102.035 14.7858 101.525 14.084C101.014 13.3776 100.75 12.3249 100.732 10.9258V9.2373C100.732 7.77441 100.985 6.6875 101.491 5.97656C101.997 5.26562 102.79 4.91016 103.87 4.91016C104.941 4.91016 105.729 5.25423 106.235 5.94238C106.741 6.62598 107 7.68327 107.014 9.11426V10.7549ZM105.75 9.02539C105.75 7.95443 105.599 7.17513 105.298 6.6875C104.998 6.19531 104.521 5.94922 103.87 5.94922C103.222 5.94922 102.751 6.19303 102.455 6.68066C102.158 7.16829 102.006 7.91797 101.997 8.92969V10.9531C101.997 12.0286 102.152 12.8239 102.461 13.3389C102.776 13.8493 103.25 14.1045 103.883 14.1045C104.508 14.1045 104.97 13.863 105.271 13.3799C105.576 12.8968 105.736 12.1357 105.75 11.0967V9.02539Z" fill="#8493A8"/>
</g>
<defs>
<clipPath id="clip0">
<rect width="107.667" height="20" fill="white" transform="translate(0.666748)"/>
</clipPath>
<clipPath id="clip1">
<rect width="60.2552" height="19.0909" fill="white" transform="translate(0.666748)"/>
</clipPath>
</defs>
</svg>
